<?xml version="1.0" encoding="UTF-8"?>
<svg width="16" height="16" version="1.1" viewBox="0 0 16 16" xmlns="http://www.w3.org/2000/svg">
 <style id="current-color-scheme" type="text/css">
   .ColorScheme-Text { color:#dfdfdf; }
 </style>
 <path class="ColorScheme-Text" d="M 3,3 V 13 H 13 V 3 Z M 4,4 H 12 V 12 H 4 Z M 5,5 V 11 H 11 V 5 Z M 1,4 V 5 H 2 V 4 Z M 1,6 V 7 H 2 V 6 Z M 1,8 V 9 H 2 V 8 Z M 1,10 V 11 H 2 V 10 Z M 14,4 V 5 H 15 V 4 Z M 14,6 V 7 H 15 V 6 Z M 14,8 V 9 H 15 V 8 Z M 14,10 V 11 H 15 V 10 Z M 4,1 V 2 H 5 V 1 Z M 6,1 V 2 H 7 V 1 Z M 8,1 V 2 H 9 V 1 Z M 10,1 V 2 H 11 V 1 Z M 4,14 V 15 H 5 V 14 Z M 6,14 V 15 H 7 V 14 Z M 8,14 V 15 H 9 V 14 Z M 10,14 V 15 H 11 V 14 Z" fill="currentColor"/>
</svg>
